<svg height="512" viewBox="0 0 32 59" width="512" xmlns="http://www.w3.org/2000/svg"><g id="Page-1" fill="none" fill-rule="evenodd"><g id="003---LED" fill-rule="nonzero"><path id="Shape" d="m25.19 3.81c-3.7178901-3.71595975-9.3077343-4.8272508-14.1642392-2.8159268-4.85650482 2.01132399-8.02383011 6.74940135-8.0257608 12.0059268v21h26.0000047l-.0000047-21c.0029207-3.44816263-1.3681879-6.75537728-3.81-9.19z" fill="#e64c3c"/><path id="Shape" d="m24 29h-4.759c-.3569037-.0007225-.6863685-.1916068-.8645074-.5008757-.1781389-.309269-.1779456-.6900364.0005074-.9991243l2.334-4c.1780913-.308467.5068158-.4989215.863-.5h1.426c.5522847 0 1 .4477153 1 1z" fill="#c03a2b"/><path id="Shape" d="m11 6.52c-.4406373.00076222-.8298435-.28698411-.9582961-.7084835-.12845255-.4214994.0341253-.87740275.4002961-1.1225165 1.6432891-1.10359132 3.578529-1.6916842 5.558-1.689.5522847 0 1 .44771525 1 1s-.4477153 1-1 1c-1.5824698-.00201593-3.1295184.46840104-4.443 1.351-.1648014.11031836-.358683.16914421-.557.169z" fill="#fb7b76"/><path id="Shape" d="m7 14c-.55228475 0-1-.4477153-1-1-.00418929-1.5435378.35336819-3.06658193 1.044-4.447.15951908-.31975272.47750683-.530114.83418035-.55184277.35667351-.02172878.6978456.14847606.89500002.44650001.19715442.29802394.22033873.67859005.06081963.99834276-.55165501 1.1033079-.83728013 2.3204682-.834 3.554 0 .2652165-.10535684.5195704-.29289322.7071068s-.44189029.2928932-.70710678.2928932z" fill="#fb7b76"/><g fill="#c03a2b"><path id="Shape" d="m23 35c-.5522847 0-1-.4477153-1-1v-5c0-.5522847.4477153-1 1-1s1 .4477153 1 1v5c0 .5522847-.4477153 1-1 1z"/><path id="Shape" d="m9 35c-.55228475 0-1-.4477153-1-1v-5c0-.5522847.44771525-1 1-1s1 .4477153 1 1v5c0 .5522847-.44771525 1-1 1z"/><path id="Shape" d="m13.623 24.5-2.334 4c-.1780913.308467-.5068158.4989215-.863.5h-2.426v-5c0-.5522847.44771525-1 1-1h3.759c.3569037.0007225.6863685.1916068.8645074.5008757.1781389.309269.1779456.6900364-.0005074.9991243z"/></g><path id="Shape" d="m9 59c-.55228475 0-1-.4477153-1-1v-15c0-.5522847.44771525-1 1-1s1 .4477153 1 1v15c0 .5522847-.44771525 1-1 1z" fill="#f29c1f"/><path id="Shape" d="m23 59c-.5522847 0-1-.4477153-1-1v-15c0-.5522847.4477153-1 1-1s1 .4477153 1 1v15c0 .5522847-.4477153 1-1 1z" fill="#f29c1f"/><rect id="Rectangle-path" fill="#f29c1f" height="5" rx="1" width="32" y="34"/><path id="Shape" d="m6 39h6v2c0 1.1045695-.8954305 2-2 2h-2c-1.1045695 0-2-.8954305-2-2z" fill="#f0c419"/><path id="Shape" d="m20 39h6v2c0 1.1045695-.8954305 2-2 2h-2c-1.1045695 0-2-.8954305-2-2z" fill="#f0c419"/></g></g></svg>